<?xml version="1.0" encoding="utf-8"?>
<!-- Generator: Adobe Illustrator 26.0.1, SVG Export Plug-In . SVG Version: 6.00 Build 0)  -->
<svg version="1.1" id="Layer_1" xmlns="http://www.w3.org/2000/svg" xmlns:xlink="http://www.w3.org/1999/xlink" x="0px" y="0px"
	 viewBox="0 0 300 69" style="enable-background:new 0 0 300 69;" xml:space="preserve">
<style type="text/css">
	.st0{fill:#FFFFFF;}
</style>
<g>
	<path class="st0" d="M32.6,44.5c-0.9-0.5-1.8-1-2.7-1.3c-6-2.3-12.2-4.4-18.4-6.2c-0.5-0.1-0.9-0.2-1.2-0.3c-0.4-0.1-0.8,0-1.2,0.2
		C8.7,37.1,8.7,37.5,9,38c0.2,0.2,0.4,0.5,0.8,0.6c1,0.5,1.9,0.7,2.8,0.7c4-0.2,7.7,0.8,11.1,2.9c0.2,0.1,0.3,0.2,0.3,0.3
		c0,0,0,0,0,0c0,0,0,0,0,0c0,0,0,0,0,0c0,0,0,0,0,0.1c0,0,0,0,0,0c0,0,0,0,0,0c0,0,0,0,0,0c0,0.1-0.2,0.1-0.4,0.2
		c-1.5,0.2-3,0.2-4.5,0.1c-1-0.1-1.9-0.1-2.9-0.2c-0.5,0-1,0.1-1.3,0.5c-0.3,0.3-0.4,0.6-0.4,0.9c0,0.5,0.3,0.7,0.8,0.9
		c0.4,0.1,0.9,0.1,1.4,0.1c0.3,0,0.8-0.1,1.4-0.2c1.2-0.3,2.4-0.5,3.6-0.6c0.2,0,0.4,0,0.6,0.2c-3.7,3.8-6.2,6.3-7.6,7.5
		c-1.1,0.9-1.9,1.9-2.5,2.8c-1.5,2.2-1.9,4.5-1.2,7.2c0.5,1.9,1.5,3.5,3,4.7c1.5,1.2,3.1,1.8,5,1.9c1.4,0.1,2.6-0.1,3.8-0.6
		c1.1-0.5,2.2-1.2,3.1-2.2c1.5-1.6,2.4-3.6,2.7-5.9c1.2-3.5,2.5-6.9,4-10.2c0.2-0.5,0.3-0.7,0.3-0.8c0.1-0.4-0.1-0.7-0.5-0.9
		c-0.5-0.3-1-0.6-1.4-1.1c0,0,0-0.1,0-0.1c0-0.1,0-0.2,0.2-0.3L33,46c0.5-0.1,0.6-0.4,0.4-0.8C33.3,44.9,33,44.7,32.6,44.5z
		 M18.2,49.1C18.2,49.1,18.2,49.2,18.2,49.1C18.2,49.2,18.2,49.1,18.2,49.1z M18.3,49.1C18.3,49.1,18.3,49.1,18.3,49.1
		C18.3,49.1,18.3,49.1,18.3,49.1C18.3,49.1,18.3,49.1,18.3,49.1z M23.8,42.8C23.9,42.7,23.9,42.7,23.8,42.8
		C23.9,42.7,23.9,42.7,23.8,42.8z M23.9,42.7C23.9,42.7,23.9,42.7,23.9,42.7C23.9,42.7,23.9,42.7,23.9,42.7z M23.9,42.2
		C23.9,42.2,23.9,42.3,23.9,42.2C23.9,42.3,23.9,42.2,23.9,42.2z M23.9,42.3C23.9,42.3,23.9,42.3,23.9,42.3
		C24,42.3,24,42.3,23.9,42.3C24,42.3,23.9,42.3,23.9,42.3z M24,42.4c0,0,0,0.1,0,0.1C24,42.4,24,42.4,24,42.4z M31,47
		C31,47,31,47,31,47C31,47,31,47,31,47C31,47,31,47,31,47z M33.3,45.3C33.3,45.4,33.3,45.4,33.3,45.3C33.3,45.4,33.3,45.4,33.3,45.3
		C33.3,45.4,33.3,45.4,33.3,45.3z M94.5,57.8c-0.2-1.3-0.7-2.4-1.5-3.4c-0.5-0.8-1.3-1.6-2.2-2.3c-4.7-3.8-9.1-8.2-13.2-13.2
		c-3-3.7-5.8-7.9-8.3-12.7c-1.9-3.8-3.6-7.6-5.2-11.5c-0.8-2.3-1.7-4.5-2.4-6.8C61,6.2,60.5,5,60,4.3c-1.1-1.7-2.7-2.8-4.6-3.4
		c-1.5-0.4-2.9-0.5-4.4-0.3c-1.5,0.3-2.9,0.9-4.1,2c-1.7,1.5-2.7,3.4-3.2,5.7c-1.6,4.4-3.4,8.7-5.3,12.9c-0.1,0.2-0.3,0.3-0.5,0.2
		c-1-0.5-1.6-1.3-1.9-2.3c-0.2-0.8-0.4-1.6-0.5-2.5c0.1-0.3,0-0.6-0.2-1c-1.3-0.2-1.8,0.4-1.5,1.9c0.1,0.3,0.2,0.6,0.3,0.8
		c1,1.7,1.9,3.5,2.8,5.4c0.2,0.4,0.1,0.5-0.3,0.3c-2.9-1.8-5.5-4-7.7-6.6c-0.5-0.6-0.9-1.1-1.2-1.6c-0.4-0.6-0.7-1.2-0.9-1.8
		c-0.3-0.8-0.7-1.3-1.3-1.7c-0.2-0.2-0.5-0.2-0.7-0.3c-0.4,0-0.6,0.2-0.7,0.5c0,0.3,0,0.6,0.2,0.9c0.2,0.4,0.4,0.7,0.7,0.9
		c3.5,3.5,7.3,7.2,11.5,11.1c1.5,1.4,3,2.7,4.6,4c0.1,0.1,0.1,0.1,0.1-0.1c0-1.1,0.3-1.6,1.1-1.5c0.3,0,0.7,0.2,1.1,0.5
		c0.3,0.3,0.7,0.5,0.9,0.8c0.3,0.2,0.5,0.2,0.7,0c2.1-2.5,4.3-4.8,6.5-7l0.8-0.7l1.3,1.3c3.4,3.5,6.6,7.3,9.6,11.2l3.6,5.3l4,7.1
		c-0.2,0.1-0.5,0.1-0.7-0.1l-9-3.3L58.9,42c-5.2-2.2-10.3-4.7-15.2-7.4c-4.1-2.3-8-4.7-11.8-7.3c-3.5-2.5-6.9-5.1-10.1-8
		c-0.9-0.8-1.7-1.4-2.3-1.7c-0.9-0.4-1.8-0.6-2.8-0.6c-1.6,0-3,0.4-4.2,1.2c-1.2,0.8-2,1.9-2.6,3.2c-0.7,1.6-0.7,3.3-0.2,5
		c0.5,1.5,1.4,2.7,2.8,3.7c0.5,0.3,1.2,0.6,1.9,0.8c0.5,0.2,1.2,0.3,2,0.5c3.6,0.9,7.5,2.2,11.8,3.8c8.7,3.4,17.1,7.4,25.2,12.1
		c4.1,2.4,8.1,4.9,12,7.5l8.9,6.5l2.5,2l1.3,1.1c0.7,0.6,1.3,1.2,2,1.8c1.9,1.6,4.1,2.3,6.6,2.1c1.7-0.1,3.2-0.7,4.4-1.7
		C94,64.5,95.1,61.5,94.5,57.8z M35.2,24.1C35.2,24.1,35.2,24.1,35.2,24.1C35.2,24.1,35.2,24.1,35.2,24.1
		C35.2,24.2,35.2,24.1,35.2,24.1z M40.6,29C40.6,29,40.6,29,40.6,29C40.6,29,40.6,29,40.6,29z M40.7,29C40.7,29,40.7,29,40.7,29
		C40.7,29,40.7,29,40.7,29z M40.8,29C40.8,29,40.8,29,40.8,29C40.8,29,40.8,29,40.8,29z M40.9,29C40.9,29,40.9,29,40.9,29
		C40.9,29,40.9,29,40.9,29C40.9,29,40.9,29,40.9,29z M44.9,29.1C44.9,29.1,44.9,29.1,44.9,29.1C44.9,29.1,44.9,29.1,44.9,29.1
		C44.9,29.1,44.9,29.1,44.9,29.1z M53,46.5C53,46.5,53,46.5,53,46.5C53,46.5,53,46.5,53,46.5z M53,46.6C53,46.5,53,46.5,53,46.6
		C53,46.5,53,46.6,53,46.6C53,46.6,53,46.6,53,46.6z M73.2,60.1C73.2,60.1,73.2,60.1,73.2,60.1C73.2,60.1,73.2,60.1,73.2,60.1
		C73.2,60.1,73.2,60.1,73.2,60.1z"/>
	<g>
		<g>
			<path class="st0" d="M100.7,25.9c2-1.3,8-3.7,7.7-6.5c-0.1-1.1-0.8-1.9-3.2-1.7c-3,0.3-5.1,2.7-6.2,1.2c-1.2-1.6,1.1-4.8,6.9-5.6
				c5.9-0.9,10.5,1.3,10.5,7.9c0,6.6,0,11.3,0,12.8c0,1.6,1.1,2.5,3.3,0.2l0.4,0.3c0,0-2.6,3-5.4,3s-2.4-2.8-2.4-5.2
				c-1.7,1.5-5.3,5.1-10.5,5.1c-2.7,0-5.1-1-5.5-3.7C95.9,30,98.2,27.6,100.7,25.9z M100.9,32.9c0.9,2.4,4.5,2.8,6.8,1.8
				c1.6-0.7,3.8-2.1,4.8-3.1V21.1c0-5.5-2.6-7.3-5.2-7.2c-2.2,0-4.1,1.1-4.9,2.4c-0.3,0.5,0.3,0.6,0.9,0.6c2.8-0.3,5.4,0.3,5.6,2.4
				c0.2,1.6-0.6,3.6-4,6.1C101.5,27.9,99.9,30.4,100.9,32.9z"/>
			<path class="st0" d="M132.2,13c3.5,0,8.3,2.3,8.3,6.3c0,1.5-1,3.1-5,3.1l-1.7,0c-6.3,0-7.7,4.8-7.9,7.9c0,0,2.3,4.8,6.8,5.3
				c4.9,0.5,8.4-2.9,10.3-6.9l0.5,0.2c-1.9,4.5-5.7,8.6-11.5,8.6c-6.3,0-11.2-6.5-11.2-12.4C120.8,18.7,125.7,13,132.2,13z
				 M124.8,23.7c0,2,0.3,3.7,0.8,5.4c0.4-3.4,2.4-7.6,8.9-7.6c1,0,2.5,0,2.5-1.2c0-3.3-2.1-6.7-5.7-6.7
				C126,13.6,124.8,19.8,124.8,23.7z"/>
			<path class="st0" d="M144.1,36.7c1.1-0.1,2.8-0.2,2.8-1.3V20.8c0-2.2-0.3-5.8-0.9-7.2h4.3c0.4,0.7,0.5,2.4,0.5,4.1l0,2.8V22
				c1.1-4.7,3.9-7.6,6.2-8.4c0.6-0.2,1.1-0.3,1.6-0.3h0.3c2,0,3.6,1.4,3.6,2.8c0,0.7-0.5,1.8-1.1,1.8c-0.6,0-1.2-1.5-4.4-1.5
				c-2.6,0-6.2,2-6.2,10.4v8.4c0,1.1,1.9,1.2,2.8,1.3v0.4h-9.5V36.7z"/>
			<path class="st0" d="M164,25.7c0-6.8,5.4-12.7,12.3-12.7c6.6,0,11.6,5,11.6,11.5c0,6.9-5.4,12.8-12.4,12.8
				C169.2,37.4,164,32.3,164,25.7z M176.6,36.8c5.7,0,7.2-6.6,7.3-11c0.1-5.1-2.3-12.1-8.5-12.1c-5.7,0-7.3,7.2-7.3,11
				C168.1,29.7,170.5,36.8,176.6,36.8z"/>
			<path class="st0" d="M189.8,13.5h6.7v11.9c0.9-4.6,5.5-12.2,9.9-12.2c6,0,5.9,5.2,5.9,11.5v10.6c0,1.1,1.9,1.2,2.8,1.3v0.4h-9.5
				v-0.4c1.1-0.1,2.8-0.3,2.8-1.3V24.7c0-5.5-0.4-9.2-3.3-9.2c-4.4,0-8.4,9.2-8.6,12.5v7.4c0,1.1,1.9,1.2,2.8,1.3v0.4h-9.5v-0.4
				c1.1-0.1,2.8-0.3,2.8-1.3V15.3c0-1.1-1.7-1.2-2.8-1.3V13.5z"/>
			<path class="st0" d="M216.8,25.7c0-6.8,5.4-12.7,12.3-12.7c6.6,0,11.6,5,11.6,11.5c0,6.9-5.4,12.8-12.4,12.8
				C222,37.4,216.8,32.3,216.8,25.7z M229.4,36.8c5.7,0,7.2-6.6,7.3-11c0.1-5.1-2.3-12.1-8.5-12.1c-5.7,0-7.3,7.2-7.3,11
				C220.9,29.7,223.2,36.8,229.4,36.8z"/>
			<path class="st0" d="M241.6,13.5h10.1V14c-0.7,0.1-3.1,0.1-2.6,1.4l6,16.7c0.4,1.1,0.6,1.6,1.5,1.6c0.9,0,1.2-0.4,1.6-1.6
				l5.6-16.5c0.5-1.3-1.9-1.5-2.6-1.6v-0.4h6.6V14c-1.1,0.1-2.9,0.4-3.3,1.6l-5.6,16.5c-1.4,4.1-2.2,5.1-3.9,5.1
				c-1.8,0-2.7-0.9-4.2-5.1l-6-16.7c-0.3-1-1.9-1.2-3-1.4V13.5z"/>
			<path class="st0" d="M271.6,25.9c2-1.3,8-3.7,7.7-6.5c-0.1-1.1-0.8-1.9-3.2-1.7c-3,0.3-5.1,2.7-6.2,1.2c-1.2-1.6,1.1-4.8,6.9-5.6
				c5.9-0.9,10.5,1.3,10.5,7.9c0,6.6,0,11.3,0,12.8c0,1.6,1.1,2.5,3.3,0.2l0.4,0.3c0,0-2.6,3-5.4,3s-2.4-2.8-2.4-5.2
				c-1.7,1.5-5.3,5.1-10.5,5.1c-2.7,0-5.1-1-5.5-3.7C266.8,30,269.2,27.6,271.6,25.9z M271.9,32.9c0.9,2.4,4.5,2.8,6.8,1.8
				c1.6-0.7,3.8-2.1,4.8-3.1V21.1c0-5.5-2.6-7.3-5.2-7.2c-2.2,0-4.1,1.1-4.9,2.4c-0.3,0.5,0.3,0.6,0.9,0.6c2.8-0.3,5.4,0.3,5.6,2.4
				c0.2,1.6-0.6,3.6-4,6.1S270.9,30.4,271.9,32.9z"/>
		</g>
		<g>
			<path class="st0" d="M122.4,48.4L122.4,48.4h0.2h0.5h1.5h1.5h0.5h0.1h0v0.5h0h-0.1h-0.5h-1.5h-1.5h-0.2v0.2v1.6v1h0.2h1.5h1.5
				h0.5h0.1h0.1v0.5h-0.1h-0.1h-0.5h-1.5h-1.5h-0.2v0v0.4v0V53v1.1v1h0.2h1.5h1.5h0.5h0.1h0v0.5h0h-0.1h-0.5h-1.5h-1.5h-0.5h-0.1
				h-0.1v-0.5v-1V53v-0.1v-0.1v-0.1v-0.5v-1.6v-1.6v-0.2v-0.3V48.4L122.4,48.4z"/>
			<path class="st0" d="M130.8,48.4L130.8,48.4v0.3v0.8V52v2.5v0.6h0.2h1.5h1.5h0.5h0.1h0.1v0.5h-0.1h-0.1h-0.5h-1.5h-1.5h-0.2h-0.3
				h-0.1h-0.1v-0.1v-0.2v-0.8V52v-2.5v-0.8v-0.2v-0.1H130.8z"/>
			<path class="st0" d="M138,48.4L138,48.4h0.2h0.5h1.5h1.5h0.5h0.1h0v0.5h0h-0.1h-0.5h-1.5h-1.5h-0.2v0.2v1.6v1h0.2h1.5h1.5h0.5
				h0.1h0.1v0.5h-0.1h-0.1h-0.5h-1.5h-1.5h-0.2v0v0.4v0V53v1.1v1h0.2h1.5h1.5h0.5h0.1h0v0.5h0h-0.1h-0.5h-1.5h-1.5h-0.5h-0.1H138
				v-0.5v-1V53v-0.1v-0.1v-0.1v-0.5v-1.6v-1.6v-0.2v-0.3V48.4L138,48.4z"/>
			<path class="st0" d="M152,48.4c-1.3,3.3-2.1,5.4-2.4,6.1c-0.1,0.3-0.2,0.6-0.3,0.8l-0.1,0.2l-0.2,0.4l-0.2-0.4l0-0.1
				c0-0.1,0-0.1-0.1-0.2c-0.1-0.2-0.2-0.5-0.3-0.8c-0.8-2-1.7-4-2.5-6.1h0.6c0.2,0.4,0.4,1,0.7,1.8c0.3,0.8,0.7,1.6,1,2.5
				c0.4,0.9,0.6,1.4,0.7,1.6l0.1,0.3l0.1-0.3l2.3-5.9H152z"/>
			<path class="st0" d="M160,53.6c-0.1-0.3-0.4-0.9-0.7-1.8c-0.4-0.9-0.7-1.6-0.8-2.1c0-0.1-0.1-0.2-0.1-0.3l-0.1,0.3l-1.6,3.9
				c0,0-0.1,0.1-0.2,0.4c-0.1,0.2-0.2,0.5-0.3,0.7l-0.3,0.8l0,0.1h-0.6l0-0.1c0-0.1,0.1-0.1,0.1-0.2c0.1-0.2,0.2-0.5,0.3-0.8
				l0.4-1.1c0.1-0.2,0.3-0.9,0.7-1.9c0.4-1,0.7-1.7,0.8-2c0.1-0.3,0.2-0.6,0.3-0.8c0,0,0-0.1,0.1-0.2l0.2-0.5l0.2,0.4c0,0,0,0,0,0.1
				c0,0.1,0.1,0.1,0.1,0.2c0.1,0.2,0.2,0.5,0.3,0.8c0.1,0.2,0.3,0.6,0.5,1.2c0.2,0.6,0.5,1.1,0.7,1.6c0.2,0.5,0.4,0.9,0.5,1.3
				c0,0,0.1,0.3,0.4,0.9c0.1,0.3,0.2,0.6,0.3,0.8l0.1,0.2l0,0.1h-0.6c-0.1-0.3-0.3-0.6-0.4-0.9c-0.1-0.3-0.2-0.5-0.3-0.7
				C160.1,53.7,160.1,53.6,160,53.6L160,53.6z"/>
			<path class="st0" d="M162.6,48.3L162.6,48.3h0.2h0.6h1.7h1.7h0.6h0.2h0.1v0.5h-0.1h-0.2h-0.6h-1.5v0.6V52v2.5v0.8v0.2v0.1h-0.5
				v-0.1v-0.2v-0.8V52v-2.5v-0.6h-1.5h-0.6h-0.2h-0.1V48.3z"/>
			<path class="st0" d="M171.2,48.4L171.2,48.4h0.2h0.5h1.5h1.5h0.5h0.1h0v0.5h0h-0.1h-0.5h-1.5h-1.5h-0.2v0.2v1.6v1h0.2h1.5h1.5
				h0.5h0.1h0.1v0.5h-0.1h-0.1h-0.5h-1.5h-1.5h-0.2v0v0.4v0V53v1.1v1h0.2h1.5h1.5h0.5h0.1h0v0.5h0h-0.1h-0.5h-1.5h-1.5h-0.5h-0.1
				h-0.1v-0.5v-1V53v-0.1v-0.1v-0.1v-0.5v-1.6v-1.6v-0.2v-0.3V48.4L171.2,48.4z"/>
			<path class="st0" d="M184.1,48.4h0.6c0.1,0.2,0.2,0.3,0.3,0.4c0.1,0.2,0.3,0.5,0.5,0.8l1.2,1.9l1.2-1.9c0.2-0.3,0.3-0.6,0.5-0.8
				l0.3-0.4h0.6c-0.2,0.3-0.3,0.5-0.3,0.5l-0.1,0.2c-0.1,0.2-0.3,0.5-0.5,0.8l-1.4,2.2v0.3v1.3c0,0.5,0,0.9,0,1.3v0.4v0.1v0l-0.5,0
				v0v-0.1V55c0-0.4,0-0.8,0-1.3v-1.3v-0.3l-1.4-2.2c-0.2-0.3-0.4-0.6-0.5-0.8l-0.1-0.2L184.1,48.4z"/>
			<path class="st0" d="M196.8,48.2c1,0,1.9,0.4,2.6,1.1c0.7,0.7,1.1,1.6,1.1,2.7c0,0.9-0.3,1.7-0.9,2.5c-0.7,0.9-1.7,1.3-2.8,1.3
				c-1.1,0-2-0.3-2.7-1.1c-0.7-0.7-1.1-1.6-1.2-2.7c0-1,0.3-1.9,1.1-2.7C194.8,48.7,195.6,48.3,196.8,48.2
				C196.7,48.2,196.7,48.2,196.8,48.2z M196.7,48.7c-0.9,0.1-1.7,0.4-2.3,1c-0.7,0.6-1,1.4-0.9,2.3c0,1,0.4,1.8,1,2.4
				c0.6,0.6,1.4,0.9,2.4,0.9c1,0,1.8-0.4,2.4-1.1c0.6-0.7,0.8-1.4,0.8-2.1c0-0.9-0.4-1.7-1-2.3C198.4,49.1,197.6,48.8,196.7,48.7
				C196.7,48.8,196.7,48.7,196.7,48.7z"/>
			<path class="st0" d="M204.5,52.8c0,0.8,0.2,1.4,0.6,1.8c0.4,0.5,0.9,0.8,1.6,0.8c0.6,0,1.1-0.3,1.5-0.8c0.3-0.5,0.5-1,0.5-1.7v0
				v-0.1v-0.5v-1.6v-1.6v-0.5v-0.1v-0.1h0.5v0.1v0.1v0.5v1.6v1.6v0.5v0v0v0.1v0c0,0.8-0.2,1.4-0.6,2c-0.5,0.7-1.1,1-1.9,1
				c-0.8,0-1.5-0.3-2-1c-0.4-0.6-0.7-1.3-0.7-2.1v0v0v-0.1v-0.5v-1.5v-1.5v-0.5v-0.1v-0.1h0.5v0.1v0.1v0.5v1.5v1.5v0.5V52.8
				L204.5,52.8L204.5,52.8z"/>
			<path class="st0" d="M216.5,55.6c-0.1-0.3-0.3-0.6-0.4-0.9c-0.5-1.1-0.9-2-1.3-2.8c-0.2,0-0.5,0-0.8,0v-0.5c1,0,1.7-0.2,2.1-0.5
				c0.3-0.2,0.4-0.5,0.4-0.8c0-0.1,0-0.3-0.1-0.5c-0.1-0.2-0.3-0.4-0.4-0.5c-0.2-0.1-0.5-0.2-1-0.2c-0.3,0-1,0-1.8,0v0.6V52
				c0,0.9,0,1.7,0,2.5v0.8v0.2v0.1h-0.5v-0.1v-0.2v-0.8l0-2.5v-2.5v-0.8v-0.2v-0.1h0.5c0.9,0,1.6,0,1.9,0c0.5,0,0.9,0.1,1.2,0.3
				c0.3,0.2,0.5,0.4,0.7,0.7c0.1,0.2,0.2,0.5,0.2,0.7c0,0.5-0.2,0.9-0.6,1.2c-0.3,0.2-0.6,0.3-1,0.4l0.7,1.7l0.4,1l0.4,0.8
				c0,0.1,0.1,0.2,0.1,0.2l0,0.1H216.5z"/>
			<path class="st0" d="M226.2,48.9v0.6V52c0,0.9,0,1.7,0,2.5v0.8v0.2v0.1h-0.5v-0.1v-0.2v-0.8c0-0.8,0-1.6,0-2.5v-2.5v-0.8v-0.2
				v-0.1h0.5c1.6,0,2.7,0.1,3.2,0.4c0.3,0.2,0.5,0.4,0.6,0.7c0.1,0.2,0.1,0.4,0.1,0.7c0,0.5-0.2,0.9-0.6,1.2
				c-0.2,0.1-0.4,0.3-0.7,0.3c0.3,0.1,0.5,0.3,0.7,0.4c0.2,0.2,0.4,0.4,0.5,0.7c0.1,0.2,0.1,0.4,0.1,0.7c0,0.6-0.2,1-0.6,1.4
				c-0.5,0.5-1.4,0.7-2.6,0.7v-0.5c1,0,1.8-0.2,2.2-0.6c0.3-0.3,0.4-0.6,0.4-1c0-0.5-0.2-0.8-0.4-1c-0.4-0.4-1.1-0.6-2-0.6h-0.1
				h-0.2v-0.5h0.2c1,0,1.7-0.2,2.1-0.5c0.3-0.2,0.4-0.5,0.4-0.8c0-0.2,0-0.3-0.1-0.4c-0.1-0.2-0.2-0.3-0.4-0.4
				C228.7,49,227.7,48.9,226.2,48.9z"/>
			<path class="st0" d="M237.5,55.6c-0.1-0.3-0.3-0.6-0.4-0.9c-0.5-1.1-0.9-2-1.3-2.8c-0.2,0-0.5,0-0.8,0v-0.5c1,0,1.7-0.2,2.1-0.5
				c0.3-0.2,0.4-0.5,0.4-0.8c0-0.1,0-0.3-0.1-0.5c-0.1-0.2-0.3-0.4-0.4-0.5c-0.2-0.1-0.5-0.2-1-0.2c-0.3,0-1,0-1.8,0v0.6V52
				c0,0.9,0,1.7,0,2.5v0.8v0.2v0.1h-0.5v-0.1v-0.2v-0.8l0-2.5v-2.5v-0.8v-0.2v-0.1h0.5c0.9,0,1.6,0,1.9,0c0.5,0,0.9,0.1,1.2,0.3
				c0.3,0.2,0.5,0.4,0.7,0.7c0.1,0.2,0.2,0.5,0.2,0.7c0,0.5-0.2,0.9-0.6,1.2c-0.3,0.2-0.6,0.3-1,0.4l0.7,1.7l0.4,1l0.4,0.8
				c0,0.1,0.1,0.2,0.1,0.2l0,0.1H237.5z"/>
			<path class="st0" d="M246.1,53.6c-0.1-0.3-0.4-0.9-0.7-1.8c-0.4-0.9-0.7-1.6-0.8-2.1c0-0.1-0.1-0.2-0.1-0.3l-0.1,0.3l-1.6,3.9
				c0,0-0.1,0.1-0.2,0.4c-0.1,0.2-0.2,0.5-0.3,0.7l-0.3,0.8l0,0.1h-0.6l0-0.1c0-0.1,0.1-0.1,0.1-0.2c0.1-0.2,0.2-0.5,0.3-0.8
				l0.4-1.1c0.1-0.2,0.3-0.9,0.7-1.9c0.4-1,0.7-1.7,0.8-2c0.1-0.3,0.2-0.6,0.3-0.8c0,0,0-0.1,0.1-0.2l0.2-0.5l0.2,0.4c0,0,0,0,0,0.1
				c0,0.1,0.1,0.1,0.1,0.2c0.1,0.2,0.2,0.5,0.3,0.8c0.1,0.2,0.3,0.6,0.5,1.2c0.2,0.6,0.5,1.1,0.7,1.6c0.2,0.5,0.4,0.9,0.5,1.3
				c0,0,0.1,0.3,0.4,0.9c0.1,0.3,0.2,0.6,0.3,0.8l0.1,0.2l0,0.1h-0.6c-0.1-0.3-0.3-0.6-0.4-0.9c-0.1-0.3-0.2-0.5-0.3-0.7
				C246.1,53.7,246.1,53.6,246.1,53.6L246.1,53.6z"/>
			<path class="st0" d="M256.3,48.4L256.3,48.4v0.2v0.6v1.7c0,0.3,0,0.6,0,0.9c0,0.3,0,0.6,0,0.8v0.6v0.2v1.1v0.3l-0.8-0.9
				c0,0-0.1-0.1-0.1-0.2l-0.5-0.6c-0.5-0.5-1-1.1-1.6-1.8c-0.6-0.6-1.1-1.2-1.6-1.8c-0.2-0.2-0.4-0.4-0.5-0.6
				c-0.1-0.1-0.1-0.1-0.1-0.2l-0.1-0.1v-0.8l0.5,0.5c0,0,0.1,0.1,0.1,0.2c0.1,0.2,0.3,0.4,0.5,0.6c0.5,0.5,1,1.1,1.6,1.8
				c0.6,0.6,1.1,1.2,1.6,1.8c0.2,0.2,0.4,0.4,0.5,0.6l0,0v-0.1v-0.6c0-0.3,0-0.5,0-0.8c0-0.3,0-0.6,0-0.9v-1.7v-0.6v-0.2v0H256.3z
				 M251,49.7l0.5,0.5c0,0,0.1,0.1,0.1,0.2c0.1,0.2,0.3,0.3,0.5,0.6c0.5,0.5,1,1.1,1.6,1.8c0.6,0.6,1.1,1.2,1.6,1.8
				c0.2,0.2,0.4,0.4,0.5,0.6c0.1,0.1,0.1,0.1,0.1,0.2l0.4,0.4h-0.7l-0.1-0.1c0,0-0.1-0.1-0.1-0.2c-0.1-0.2-0.3-0.3-0.5-0.6
				c-0.5-0.5-1-1.1-1.6-1.8c-0.6-0.6-1.1-1.2-1.6-1.8l-0.2-0.2v0.2V53v1.8v0.6v0.2v0.1H251v-0.1v-0.2v-0.6V53v-1.8v-0.6v-0.2v-0.1
				V49.7z"/>
			<path class="st0" d="M261.1,48.4c1.3,0,2.3,0.4,3.1,1.1c0.7,0.7,1,1.5,1.1,2.5c0,1.1-0.3,1.9-0.9,2.5c-0.4,0.4-0.9,0.7-1.6,0.9
				c-0.5,0.1-0.9,0.2-1.3,0.2h-0.5v-0.1v-0.2v-0.8c0-0.8,0-1.6,0-2.5v-2.5c0-0.3,0-0.6,0-0.8v-0.2v-0.1H261.1L261.1,48.4z
				 M261.3,55.1c0.4,0,0.8-0.1,1.2-0.2c0.6-0.2,1.1-0.4,1.4-0.7c0.5-0.5,0.8-1.2,0.8-2.1c0-0.9-0.3-1.6-0.9-2.2
				c-0.6-0.6-1.4-0.9-2.5-1c0,0,0,0.1,0,0.2c0,0.1,0,0.2,0,0.4V52c0,0.9,0,1.7,0,2.5V55.1z"/>
		</g>
	</g>
</g>
</svg>
