<?xml version="1.0" encoding="utf-8"?>
<!-- Generator: Adobe Illustrator 26.0.1, SVG Export Plug-In . SVG Version: 6.00 Build 0)  -->
<svg version="1.1" id="Layer_1" xmlns="http://www.w3.org/2000/svg" xmlns:xlink="http://www.w3.org/1999/xlink" x="0px" y="0px"
	 viewBox="0 0 300 300" style="enable-background:new 0 0 300 300;" xml:space="preserve">
<style type="text/css">
	.st0{fill:#FFFFFF;}
</style>
<g>
	<path class="st0" d="M95.78,139.67c-2.45-1.47-5.02-2.72-7.69-3.75c-17.15-6.58-34.52-12.48-52.13-17.7
		c-1.32-0.39-2.44-0.67-3.35-0.84c-1.28-0.24-2.36-0.06-3.26,0.54c-1.28,0.87-1.44,1.98-0.45,3.34c0.5,0.69,1.27,1.3,2.3,1.84
		c2.72,1.41,5.36,2.05,7.9,1.93c11.36-0.51,21.82,2.24,31.37,8.24c0.57,0.36,0.85,0.65,0.88,0.89c0-0.03,0.02-0.05,0.02-0.08
		c0,0.04,0,0.09-0.01,0.13c0-0.02,0-0.03-0.01-0.05c-0.01,0.06-0.02,0.12-0.04,0.19c0.01-0.01,0.01-0.02,0.02-0.03
		c-0.01,0.03-0.02,0.06-0.03,0.09c0.01-0.02,0.01-0.04,0.01-0.06c-0.12,0.21-0.49,0.36-1.15,0.45c-4.23,0.59-8.48,0.69-12.73,0.29
		c-2.73-0.26-5.47-0.42-8.21-0.49c-1.53-0.04-2.78,0.41-3.76,1.35c-0.77,0.75-1.13,1.63-1.08,2.63c0.07,1.28,0.83,2.1,2.25,2.46
		c1.08,0.27,2.44,0.35,4.06,0.24c0.92-0.06,2.24-0.29,3.97-0.7c3.36-0.8,6.8-1.32,10.32-1.57c0.56-0.08,1.14,0.13,1.72,0.64
		c-10.37,10.7-17.54,17.79-21.54,21.29c-3.08,2.69-5.47,5.3-7.18,7.83c-4.19,6.11-5.34,12.87-3.46,20.28
		c1.37,5.4,4.22,9.85,8.55,13.34c4.13,3.33,8.86,5.14,14.19,5.41c3.85,0.2,7.48-0.38,10.89-1.75c3.24-1.3,6.16-3.36,8.78-6.16
		c4.26-4.58,6.85-10.18,7.76-16.78c3.35-9.88,7.14-19.54,11.39-29c0.61-1.35,0.92-2.1,0.96-2.25c0.2-1.04-0.29-1.85-1.47-2.42
		c-1.54-0.76-2.83-1.82-3.87-3.17c-0.06-0.07-0.1-0.16-0.12-0.25c-0.09-0.34,0.11-0.67,0.43-0.75l4.92-1.14
		c1.43-0.34,1.82-1.12,1.16-2.36C97.69,141.06,96.93,140.36,95.78,139.67z M55.04,152.94c0.02,0.01,0.04,0.03,0.07,0.04
		C55.08,152.97,55.06,152.96,55.04,152.94z M55.28,152.96c-0.03,0.01-0.05,0-0.07,0.01c0.04-0.01,0.08-0.01,0.12-0.03
		C55.31,152.95,55.29,152.95,55.28,152.96z M70.95,134.84c0.04-0.03,0.07-0.06,0.11-0.09C71.02,134.79,70.99,134.82,70.95,134.84z
		 M71.2,134.58c-0.03,0.05-0.07,0.09-0.11,0.14C71.14,134.68,71.17,134.63,71.2,134.58z M71.09,133.35
		c0.04,0.04,0.08,0.09,0.12,0.15C71.17,133.45,71.13,133.4,71.09,133.35z M71.2,133.5c0.02,0.03,0.05,0.07,0.06,0.11
		c0.01,0.02,0.01,0.03,0.02,0.05C71.27,133.6,71.24,133.55,71.2,133.5z M71.31,133.71c0.04,0.11,0.06,0.21,0.06,0.32
		C71.37,133.92,71.35,133.81,71.31,133.71z M91.28,146.98c-0.02-0.02-0.04-0.04-0.05-0.05c0.03,0.03,0.07,0.07,0.11,0.09
		C91.31,147.01,91.29,147,91.28,146.98z M97.71,142.18c0.02,0.02,0.05,0.05,0.07,0.08c0.01,0.01,0.01,0.03,0.02,0.05
		C97.77,142.26,97.75,142.22,97.71,142.18z M271.26,177.55c-0.52-3.64-1.96-6.81-4.31-9.52c-1.55-2.25-3.66-4.44-6.32-6.58
		c-13.44-10.82-25.91-23.3-37.43-37.44c-8.45-10.37-16.33-22.35-23.66-35.94c-5.38-10.68-10.27-21.57-14.67-32.69
		c-2.37-6.41-4.68-12.85-6.93-19.32c-1.68-4.83-3.19-8.22-4.53-10.19c-3.25-4.75-7.62-7.96-13.12-9.63
		c-4.16-1.26-8.3-1.52-12.41-0.77c-4.38,0.79-8.25,2.68-11.59,5.65c-4.69,4.17-7.68,9.6-8.98,16.28
		c-4.48,12.58-9.52,24.79-15.14,36.62c-0.26,0.54-0.9,0.76-1.44,0.51c-2.83-1.35-4.67-3.54-5.52-6.58c-0.62-2.26-1.11-4.6-1.47-7.02
		c0.24-0.82,0.05-1.78-0.57-2.87c-3.77-0.57-5.17,1.21-4.21,5.34c0.2,0.84,0.51,1.63,0.95,2.37c2.83,4.83,5.42,9.91,7.8,15.25
		c0.56,1.27,0.25,1.53-0.92,0.8c-8.22-5.13-15.51-11.39-21.86-18.78c-1.4-1.62-2.51-3.11-3.34-4.45c-1.08-1.75-1.91-3.42-2.46-5.02
		c-0.74-2.14-1.94-3.74-3.6-4.82c-0.71-0.46-1.41-0.7-2.09-0.73c-1.14-0.04-1.79,0.47-1.98,1.54c-0.13,0.78,0.05,1.66,0.57,2.64
		c0.52,1,1.14,1.86,1.86,2.58c9.79,9.83,20.68,20.35,32.66,31.57c4.25,3.98,8.64,7.74,13.16,11.3c0.28,0.22,0.42,0.16,0.41-0.2
		c-0.1-3.12,0.91-4.56,3.02-4.32c0.89,0.1,1.92,0.58,3.09,1.43c0.99,0.71,1.88,1.44,2.69,2.19c0.72,0.66,1.39,0.62,2.02-0.13
		c5.92-6.97,12.08-13.63,18.51-19.98l2.27-2.09l3.78,3.67c9.75,10.03,18.84,20.62,27.26,31.79l10.32,14.99l11.35,20.24
		c-0.64,0.39-1.29,0.34-1.95-0.15l-25.54-9.45l-6.57-3c-14.7-6.33-29.06-13.36-43.08-21.09c-11.48-6.42-22.65-13.35-33.51-20.77
		c-9.96-6.95-19.46-14.47-28.51-22.56c-2.68-2.4-4.83-3.96-6.46-4.68c-2.49-1.11-5.15-1.68-7.99-1.71
		c-4.51-0.06-8.45,1.06-11.83,3.36c-3.27,2.23-5.72,5.26-7.37,9.09c-1.94,4.51-2.11,9.25-0.52,14.23c1.38,4.31,4.04,7.77,7.96,10.35
		c1.48,0.98,3.27,1.78,5.36,2.41c1.51,0.45,3.41,0.97,5.7,1.55c10.1,2.56,21.21,6.16,33.34,10.79
		c24.69,9.53,48.47,20.94,71.36,34.24c11.53,6.83,22.88,13.93,34.06,21.32l25.31,18.5l6.95,5.73l3.67,3.14
		c1.88,1.73,3.8,3.43,5.75,5.08c5.37,4.57,11.61,6.56,18.72,5.97c4.76-0.4,8.96-2.03,12.6-4.9
		C269.91,196.37,273.05,187.98,271.26,177.55z M103.24,82.09c-0.01-0.01-0.01-0.03-0.02-0.04c0.01,0.02,0.03,0.05,0.05,0.07
		C103.26,82.11,103.25,82.1,103.24,82.09z M118.41,95.82c0.07,0.06,0.16,0.1,0.26,0.13C118.57,95.92,118.48,95.88,118.41,95.82z
		 M118.77,95.95c0.05,0,0.09,0.01,0.14,0C118.86,95.96,118.82,95.96,118.77,95.95z M119.03,95.92c0.04-0.01,0.08-0.02,0.12-0.05
		C119.11,95.9,119.07,95.91,119.03,95.92z M119.32,95.73c-0.02,0.02-0.05,0.04-0.07,0.06c0.03-0.03,0.06-0.05,0.08-0.08
		C119.33,95.72,119.33,95.72,119.32,95.73z M130.58,96.19c-0.01,0.01-0.02,0.01-0.02,0.01c0.03-0.03,0.06-0.06,0.09-0.09
		C130.63,96.14,130.61,96.17,130.58,96.19z M153.5,145.4c-0.01,0.02-0.03,0.05-0.03,0.07C153.47,145.44,153.49,145.42,153.5,145.4z
		 M153.49,145.62c-0.01-0.02,0-0.04-0.01-0.07c0.01,0.04,0.01,0.07,0.04,0.1C153.51,145.64,153.5,145.63,153.49,145.62z
		 M210.92,183.95c0-0.01,0-0.01-0.01-0.02c0.02,0.03,0.03,0.06,0.06,0.09C210.95,184,210.94,183.98,210.92,183.95z"/>
	<g>
		<g>
			<path class="st0" d="M30.51,246.38c2.53-1.7,10.22-4.78,9.84-8.35c-0.11-1.37-0.99-2.47-4.07-2.2c-3.9,0.33-6.54,3.46-7.97,1.48
				c-1.48-2.03,1.37-6.15,8.9-7.2c7.53-1.1,13.52,1.7,13.52,10.17c0,8.41,0.05,14.45,0.05,16.43c0,2.03,1.43,3.19,4.29,0.22
				l0.55,0.38c0,0-3.35,3.79-6.87,3.79c-3.52,0-3.08-3.57-3.08-6.65c-2.14,1.87-6.81,6.59-13.46,6.54c-3.41,0-6.48-1.32-7.09-4.73
				C24.35,251.6,27.32,248.58,30.51,246.38z M30.78,255.29c1.21,3.08,5.77,3.63,8.68,2.25c2.03-0.88,4.84-2.64,6.21-3.96v-13.35
				c0-7.09-3.3-9.34-6.65-9.29c-2.86,0.05-5.28,1.43-6.26,3.08c-0.38,0.6,0.38,0.77,1.1,0.71c3.57-0.38,6.87,0.33,7.2,3.08
				c0.27,2.09-0.77,4.56-5.11,7.86C31.61,248.97,29.57,252.15,30.78,255.29z"/>
			<path class="st0" d="M71.01,229.84c4.51,0,10.66,2.91,10.66,8.13c0,1.92-1.32,3.96-6.37,3.96l-2.2-0.06
				c-8.13,0-9.89,6.1-10.11,10.11c0,0,2.97,6.15,8.68,6.76c6.32,0.66,10.72-3.68,13.24-8.9l0.6,0.22
				c-2.42,5.83-7.36,10.99-14.78,10.99c-8.08,0-14.4-8.35-14.4-15.88C56.34,237.15,62.6,229.84,71.01,229.84z M61.45,243.58
				c0,2.58,0.38,4.73,1.04,6.98c0.49-4.34,3.02-9.78,11.38-9.78c1.32,0,3.19,0,3.19-1.59c0-4.18-2.75-8.63-7.36-8.63
				C63.04,230.56,61.45,238.47,61.45,243.58z"/>
			<path class="st0" d="M86.29,260.18c1.37-0.16,3.57-0.27,3.57-1.7v-18.68c0-2.86-0.33-7.47-1.1-9.29h5.55
				c0.49,0.93,0.6,3.08,0.6,5.28l-0.05,3.63v1.98c1.37-6.05,5-9.73,7.97-10.72c0.71-0.22,1.37-0.33,2.03-0.33h0.38
				c2.58,0.05,4.62,1.81,4.62,3.57c0,0.93-0.6,2.36-1.43,2.36c-0.71,0-1.54-1.92-5.61-1.92c-3.35,0-7.97,2.58-7.97,13.3v10.83
				c0,1.43,2.42,1.54,3.57,1.7v0.55H86.29V260.18z"/>
			<path class="st0" d="M111.79,246.11c0-8.68,6.98-16.27,15.83-16.27c8.46,0,14.95,6.37,14.95,14.78c0,8.85-6.87,16.43-15.94,16.43
				C118.43,261.06,111.79,254.52,111.79,246.11z M127.94,260.29c7.36,0,9.29-8.52,9.4-14.18c0.16-6.54-2.97-15.5-10.88-15.5
				c-7.36,0-9.4,9.23-9.4,14.12C117.06,251.22,120.08,260.29,127.94,260.29z"/>
			<path class="st0" d="M144.92,230.5h8.57v15.22c1.15-5.93,7.03-15.61,12.64-15.61c7.75,0,7.53,6.7,7.53,14.73v13.63
				c0,1.37,2.42,1.59,3.57,1.7v0.55h-12.14v-0.55c1.37-0.11,3.57-0.33,3.57-1.7v-13.68c0-7.03-0.55-11.82-4.18-11.82
				c-5.61,0-10.77,11.76-10.99,16.05v9.45c0,1.37,2.42,1.59,3.57,1.7v0.55h-12.14v-0.55c1.37-0.11,3.57-0.33,3.57-1.7V232.7
				c0-1.37-2.2-1.48-3.57-1.65V230.5z"/>
			<path class="st0" d="M179.49,246.11c0-8.68,6.98-16.27,15.83-16.27c8.46,0,14.95,6.37,14.95,14.78c0,8.85-6.87,16.43-15.94,16.43
				C186.14,261.06,179.49,254.52,179.49,246.11z M195.65,260.29c7.36,0,9.29-8.52,9.4-14.18c0.16-6.54-2.97-15.5-10.88-15.5
				c-7.36,0-9.4,9.23-9.4,14.12C184.77,251.22,187.79,260.29,195.65,260.29z"/>
			<path class="st0" d="M211.31,230.5h12.97v0.55c-0.88,0.11-3.96,0.11-3.35,1.81l7.64,21.49c0.49,1.37,0.82,2.03,1.87,2.03
				c1.1,0,1.59-0.55,2.09-2.09l7.2-21.16c0.6-1.65-2.47-1.98-3.35-2.09v-0.55h8.41v0.55c-1.43,0.16-3.68,0.49-4.23,2.09l-7.2,21.16
				c-1.81,5.28-2.8,6.59-5.06,6.59c-2.25,0-3.46-1.15-5.39-6.54l-7.75-21.49c-0.44-1.26-2.42-1.59-3.85-1.81V230.5z"/>
			<path class="st0" d="M249.89,246.38c2.53-1.7,10.22-4.78,9.84-8.35c-0.11-1.37-0.99-2.47-4.07-2.2c-3.9,0.33-6.54,3.46-7.97,1.48
				c-1.48-2.03,1.37-6.15,8.9-7.2c7.53-1.1,13.52,1.7,13.52,10.17c0,8.41,0.05,14.45,0.05,16.43c0,2.03,1.43,3.19,4.29,0.22
				l0.55,0.38c0,0-3.35,3.79-6.87,3.79s-3.08-3.57-3.08-6.65c-2.14,1.87-6.81,6.59-13.46,6.54c-3.41,0-6.48-1.32-7.09-4.73
				C243.73,251.6,246.7,248.58,249.89,246.38z M250.16,255.29c1.21,3.08,5.77,3.63,8.68,2.25c2.03-0.88,4.84-2.64,6.21-3.96v-13.35
				c0-7.09-3.3-9.34-6.65-9.29c-2.86,0.05-5.28,1.43-6.26,3.08c-0.38,0.6,0.38,0.77,1.1,0.71c3.57-0.38,6.87,0.33,7.2,3.08
				c0.27,2.09-0.77,4.56-5.11,7.86S248.95,252.15,250.16,255.29z"/>
		</g>
		<g>
			<path class="st0" d="M58.38,275.18h0.07h0.17h0.63h1.93h1.93h0.63h0.19h0.06v0.67h-0.06h-0.19h-0.63h-1.93h-1.93h-0.2v0.26v2.01
				v1.32h0.24h1.92h1.9h0.63h0.17h0.07v0.67H63.9h-0.17H63.1h-1.9h-1.92h-0.24v0.02v0.52v0.04v0.45v1.36v1.32h0.2h1.92h1.92h0.63
				h0.19h0.06v0.67H63.9h-0.19h-0.63h-1.92h-1.92h-0.63h-0.17h-0.07v-0.67v-1.32v-1.36v-0.07v-0.07v-0.19v-0.67v-2.01v-2.01v-0.26
				v-0.41v-0.19V275.18z"/>
			<path class="st0" d="M69.13,275.18v0.11v0.28v1.06v3.2v3.2v0.78h0.2h1.9h1.9h0.63h0.17H74v0.67h-0.07h-0.17h-0.63h-1.9h-1.9h-0.2
				H68.7h-0.17h-0.07v-0.11v-0.28v-1.06v-3.2v-3.2v-1.06v-0.28v-0.11H69.13z"/>
			<path class="st0" d="M78.45,275.18h0.07h0.17h0.63h1.93h1.93h0.63h0.19h0.06v0.67h-0.06h-0.19h-0.63h-1.93h-1.93h-0.2v0.26v2.01
				v1.32h0.24h1.92h1.9h0.63h0.17h0.07v0.67h-0.07H83.8h-0.63h-1.9h-1.92h-0.24v0.02v0.52v0.04v0.45v1.36v1.32h0.2h1.92h1.92h0.63
				h0.19h0.06v0.67h-0.06h-0.19h-0.63h-1.92h-1.92h-0.63h-0.17h-0.07v-0.67v-1.32v-1.36v-0.07v-0.07v-0.19v-0.67v-2.01v-2.01v-0.26
				v-0.41v-0.19V275.18z"/>
			<path class="st0" d="M96.43,275.18c-1.69,4.27-2.72,6.88-3.09,7.85c-0.16,0.41-0.3,0.76-0.43,1.06l-0.09,0.28l-0.22,0.58
				l-0.2-0.48l-0.04-0.07c-0.03-0.07-0.06-0.17-0.11-0.3c-0.12-0.29-0.27-0.64-0.43-1.06c-1.05-2.5-2.13-5.12-3.24-7.85h0.73
				c0.21,0.52,0.52,1.29,0.94,2.31c0.42,1.02,0.85,2.08,1.31,3.19c0.46,1.11,0.75,1.81,0.87,2.11l0.15,0.35l0.13-0.35l3.01-7.61
				H96.43z"/>
			<path class="st0" d="M106.7,281.88c-0.15-0.37-0.46-1.16-0.95-2.35c-0.48-1.2-0.84-2.07-1.06-2.63
				c-0.06-0.15-0.11-0.27-0.15-0.35l-0.15,0.33l-1.99,5.06c-0.01,0.02-0.08,0.19-0.2,0.48c-0.12,0.3-0.23,0.58-0.34,0.86l-0.41,1.06
				l-0.06,0.15h-0.73l0.04-0.09c0.04-0.09,0.07-0.19,0.11-0.3c0.12-0.3,0.27-0.65,0.43-1.06l0.52-1.36
				c0.11-0.29,0.43-1.09,0.96-2.42c0.53-1.33,0.88-2.2,1.05-2.62c0.16-0.41,0.3-0.76,0.41-1.06c0.02-0.05,0.06-0.14,0.11-0.26
				l0.22-0.6l0.2,0.48c0,0.02,0.01,0.05,0.02,0.07c0.04,0.09,0.08,0.19,0.13,0.3c0.12,0.3,0.27,0.65,0.43,1.06
				c0.12,0.31,0.34,0.83,0.64,1.55c0.3,0.73,0.58,1.4,0.84,2.03c0.25,0.63,0.47,1.17,0.66,1.63c0.01,0.01,0.17,0.41,0.48,1.19
				c0.17,0.41,0.32,0.76,0.43,1.06l0.13,0.3l0.04,0.09h-0.73c-0.16-0.38-0.32-0.78-0.48-1.19c-0.14-0.33-0.27-0.65-0.4-0.95
				c-0.13-0.3-0.2-0.45-0.2-0.46H106.7z"/>
			<path class="st0" d="M109.99,275.16h0.07h0.2h0.74h2.23h2.23h0.73h0.2h0.07v0.67h-0.07h-0.2h-0.73h-1.9v0.8v3.2v3.2v1.04v0.3
				v0.11h-0.67v-0.11v-0.28v-1.06v-3.2v-3.2v-0.8h-1.9h-0.74h-0.2h-0.07V275.16z"/>
			<path class="st0" d="M120.95,275.18h0.07h0.17h0.63h1.93h1.93h0.63h0.19h0.06v0.67h-0.06h-0.19h-0.63h-1.93h-1.93h-0.2v0.26v2.01
				v1.32h0.24h1.92h1.9h0.63h0.17h0.07v0.67h-0.07h-0.17h-0.63h-1.9h-1.92h-0.24v0.02v0.52v0.04v0.45v1.36v1.32h0.2h1.92h1.92h0.63
				h0.19h0.06v0.67h-0.06h-0.19h-0.63h-1.92h-1.92h-0.63h-0.17h-0.07v-0.67v-1.32v-1.36v-0.07v-0.07v-0.19v-0.67v-2.01v-2.01v-0.26
				v-0.41v-0.19V275.18z"/>
			<path class="st0" d="M137.59,275.18h0.8c0.16,0.26,0.28,0.45,0.35,0.56c0.17,0.27,0.38,0.6,0.63,0.99l1.56,2.47l1.58-2.46
				c0.24-0.4,0.45-0.73,0.63-1l0.35-0.56h0.78c-0.24,0.37-0.37,0.58-0.41,0.63l-0.17,0.28c-0.17,0.27-0.38,0.61-0.63,1l-1.8,2.83
				v0.41v1.69c0.01,0.62,0.02,1.18,0.02,1.69v0.56v0.17v0.04l-0.67,0.02v-0.06v-0.17v-0.56c0-0.51-0.01-1.07-0.02-1.69v-1.69v-0.41
				l-1.79-2.83c-0.25-0.4-0.46-0.73-0.63-1l-0.19-0.28L137.59,275.18z"/>
			<path class="st0" d="M153.81,275.01c1.3,0.02,2.42,0.5,3.36,1.43c0.94,0.93,1.42,2.06,1.46,3.4c0.04,1.14-0.35,2.21-1.15,3.2
				c-0.93,1.14-2.13,1.71-3.59,1.71c-1.4,0.01-2.57-0.44-3.52-1.35c-0.94-0.91-1.44-2.07-1.49-3.49c-0.04-1.34,0.43-2.49,1.41-3.44
				c0.93-0.92,2.07-1.41,3.42-1.49C153.76,274.99,153.79,275,153.81,275.01z M153.7,275.66c-1.15,0.07-2.13,0.51-2.94,1.3
				c-0.84,0.82-1.25,1.79-1.21,2.92c0.05,1.24,0.48,2.25,1.28,3.04c0.81,0.79,1.82,1.18,3.05,1.16c1.26,0,2.29-0.49,3.07-1.47
				c0.71-0.84,1.04-1.76,1-2.75c-0.04-1.17-0.46-2.15-1.27-2.96c-0.81-0.81-1.79-1.22-2.93-1.23
				C153.73,275.68,153.71,275.68,153.7,275.66z"/>
			<path class="st0" d="M163.76,280.85c0.04,0.97,0.29,1.75,0.74,2.34c0.5,0.64,1.16,0.97,1.99,0.97c0.77,0,1.4-0.33,1.88-1
				c0.43-0.61,0.66-1.35,0.69-2.21v-0.02v-0.19v-0.65v-2.01v-1.99v-0.65v-0.19v-0.07h0.67v0.07v0.19v0.65v1.99v2.01v0.65v0.06v0.04
				v0.11v0.04c-0.04,1-0.31,1.85-0.82,2.55c-0.6,0.87-1.4,1.3-2.42,1.3c-1.04,0-1.89-0.41-2.53-1.23c-0.55-0.71-0.84-1.61-0.87-2.72
				v-0.06v-0.06v-0.19v-0.63v-1.95v-1.93v-0.63v-0.19v-0.07h0.67v0.07v0.19v0.63v1.93v1.95v0.63v0.19v0.06V280.85z"/>
			<path class="st0" d="M179.15,284.48c-0.16-0.38-0.33-0.78-0.5-1.19c-0.6-1.38-1.14-2.58-1.64-3.61
				c-0.31,0.04-0.65,0.06-1.02,0.06v-0.67c1.29,0,2.19-0.2,2.72-0.61c0.36-0.27,0.54-0.63,0.54-1.08c0-0.17-0.05-0.38-0.15-0.61
				c-0.14-0.27-0.32-0.47-0.56-0.6c-0.27-0.15-0.7-0.25-1.28-0.3c-0.45-0.02-1.23-0.03-2.36-0.02v0.78v3.2
				c0,1.17,0.01,2.23,0.02,3.2v1.04v0.3v0.11h-0.67v-0.11v-0.3v-1.04l-0.02-3.2v-3.2v-1.06v-0.28v-0.11h0.6
				c1.19-0.01,2.01-0.01,2.47,0.02c0.69,0.05,1.22,0.17,1.56,0.37c0.37,0.22,0.65,0.52,0.84,0.89c0.15,0.31,0.22,0.62,0.22,0.93
				c0,0.67-0.27,1.2-0.8,1.6c-0.32,0.25-0.76,0.44-1.32,0.58l0.93,2.12l0.58,1.34l0.47,1.06c0.05,0.11,0.09,0.21,0.11,0.3l0.06,0.09
				H179.15z"/>
			<path class="st0" d="M191.57,275.85v0.78v3.2c0,1.15,0.01,2.22,0.02,3.2v1.04v0.3v0.11h-0.67v-0.11v-0.3v-1.04
				c-0.01-0.97-0.02-2.03-0.02-3.2v-3.2v-1.06v-0.3v-0.09h0.67c2.07-0.04,3.42,0.12,4.05,0.48c0.37,0.21,0.64,0.5,0.82,0.86
				c0.12,0.26,0.19,0.55,0.19,0.87c-0.02,0.68-0.3,1.22-0.82,1.6c-0.24,0.19-0.53,0.33-0.89,0.45c0.38,0.15,0.69,0.33,0.91,0.54
				c0.3,0.26,0.5,0.56,0.61,0.91c0.09,0.22,0.14,0.53,0.17,0.91c0,0.71-0.26,1.3-0.78,1.77c-0.68,0.61-1.77,0.91-3.27,0.91v-0.67
				c1.33,0,2.27-0.25,2.83-0.74c0.37-0.33,0.56-0.76,0.56-1.26c-0.02-0.58-0.21-1.02-0.56-1.32c-0.52-0.46-1.4-0.71-2.62-0.74h-0.09
				h-0.2v-0.67h0.32c1.25-0.01,2.13-0.22,2.64-0.61c0.33-0.26,0.51-0.62,0.54-1.08c0-0.21-0.04-0.4-0.13-0.58
				c-0.11-0.22-0.29-0.41-0.52-0.56C194.75,275.94,193.5,275.81,191.57,275.85z"/>
			<path class="st0" d="M206.02,284.48c-0.16-0.38-0.33-0.78-0.5-1.19c-0.6-1.38-1.14-2.58-1.64-3.61
				c-0.31,0.04-0.65,0.06-1.02,0.06v-0.67c1.29,0,2.19-0.2,2.72-0.61c0.36-0.27,0.54-0.63,0.54-1.08c0-0.17-0.05-0.38-0.15-0.61
				c-0.14-0.27-0.32-0.47-0.56-0.6c-0.27-0.15-0.7-0.25-1.28-0.3c-0.45-0.02-1.23-0.03-2.36-0.02v0.78v3.2
				c0,1.17,0.01,2.23,0.02,3.2v1.04v0.3v0.11h-0.67v-0.11v-0.3v-1.04l-0.02-3.2v-3.2v-1.06v-0.28v-0.11h0.6
				c1.19-0.01,2.01-0.01,2.47,0.02c0.69,0.05,1.22,0.17,1.56,0.37c0.37,0.22,0.65,0.52,0.84,0.89c0.15,0.31,0.22,0.62,0.22,0.93
				c0,0.67-0.27,1.2-0.8,1.6c-0.32,0.25-0.76,0.44-1.32,0.58l0.93,2.12l0.58,1.34l0.47,1.06c0.05,0.11,0.09,0.21,0.11,0.3l0.06,0.09
				H206.02z"/>
			<path class="st0" d="M217.07,281.88c-0.15-0.37-0.46-1.16-0.95-2.35c-0.48-1.2-0.84-2.07-1.06-2.63
				c-0.06-0.15-0.11-0.27-0.15-0.35l-0.15,0.33l-1.99,5.06c-0.01,0.02-0.08,0.19-0.2,0.48c-0.12,0.3-0.23,0.58-0.34,0.86l-0.41,1.06
				l-0.06,0.15h-0.73l0.04-0.09c0.04-0.09,0.07-0.19,0.11-0.3c0.12-0.3,0.27-0.65,0.43-1.06l0.52-1.36
				c0.11-0.29,0.43-1.09,0.96-2.42c0.53-1.33,0.88-2.2,1.05-2.62c0.16-0.41,0.3-0.76,0.41-1.06c0.02-0.05,0.06-0.14,0.11-0.26
				l0.22-0.6l0.2,0.48c0,0.02,0.01,0.05,0.02,0.07c0.04,0.09,0.08,0.19,0.13,0.3c0.12,0.3,0.27,0.65,0.43,1.06
				c0.12,0.31,0.34,0.83,0.64,1.55c0.3,0.73,0.58,1.4,0.84,2.03c0.25,0.63,0.47,1.17,0.66,1.63c0.01,0.01,0.17,0.41,0.48,1.19
				c0.17,0.41,0.32,0.76,0.43,1.06l0.13,0.3l0.04,0.09h-0.73c-0.16-0.38-0.32-0.78-0.48-1.19c-0.14-0.33-0.27-0.65-0.4-0.95
				c-0.13-0.3-0.2-0.45-0.2-0.46H217.07z"/>
			<path class="st0" d="M230.2,275.18v0.06v0.2v0.74v2.21c0,0.42,0,0.82-0.01,1.18c-0.01,0.37-0.01,0.71-0.01,1.03v0.73v0.2v1.36
				v0.35l-1-1.17c-0.05-0.05-0.11-0.12-0.19-0.2l-0.65-0.74c-0.62-0.68-1.3-1.43-2.03-2.25c-0.73-0.83-1.41-1.59-2.03-2.27
				c-0.26-0.28-0.48-0.53-0.67-0.74c-0.07-0.07-0.14-0.14-0.19-0.2l-0.09-0.11v-0.97l0.6,0.63c0.05,0.06,0.11,0.13,0.19,0.2
				c0.19,0.21,0.41,0.46,0.67,0.74c0.61,0.68,1.28,1.44,2.03,2.27c0.73,0.82,1.4,1.57,2.01,2.25c0.26,0.29,0.48,0.53,0.67,0.74
				l0.02,0.02v-0.11v-0.73c0-0.32,0-0.67,0.01-1.03c0.01-0.37,0.01-0.76,0.01-1.18v-2.21v-0.74v-0.2v-0.06H230.2z M223.34,276.87
				l0.6,0.63c0.05,0.06,0.11,0.14,0.19,0.22c0.19,0.2,0.41,0.45,0.67,0.74c0.61,0.68,1.28,1.43,2.03,2.25
				c0.73,0.82,1.4,1.57,2.01,2.25c0.26,0.3,0.48,0.55,0.67,0.74c0.07,0.09,0.14,0.16,0.19,0.2l0.54,0.56h-0.95l-0.09-0.11
				c-0.05-0.05-0.11-0.12-0.19-0.2c-0.19-0.2-0.41-0.45-0.67-0.74c-0.61-0.68-1.28-1.43-2.01-2.25c-0.74-0.82-1.42-1.57-2.03-2.25
				l-0.28-0.32v0.26v2.29v2.29v0.76v0.2v0.07h-0.67v-0.07v-0.2v-0.76v-2.29v-2.29v-0.74v-0.22v-0.07V276.87z"/>
			<path class="st0" d="M236.32,275.18c1.64-0.01,2.95,0.46,3.94,1.43c0.88,0.87,1.33,1.95,1.36,3.24c0,1.38-0.39,2.46-1.17,3.26
				c-0.5,0.48-1.18,0.85-2.05,1.1c-0.6,0.16-1.17,0.25-1.73,0.28h-0.67v-0.09v-0.3v-1.06c0-0.97-0.01-2.03-0.02-3.2v-3.2
				c-0.01-0.41-0.02-0.76-0.02-1.04v-0.3v-0.11h0.32H236.32z M236.68,283.81c0.56-0.02,1.07-0.11,1.54-0.26
				c0.78-0.21,1.36-0.52,1.75-0.93c0.66-0.66,0.99-1.57,0.99-2.75c-0.02-1.12-0.41-2.04-1.15-2.77c-0.79-0.78-1.85-1.2-3.16-1.25
				c0,0.05,0,0.15,0.01,0.3c0.01,0.15,0.01,0.31,0.01,0.48v3.2c0.01,1.17,0.02,2.23,0.02,3.2V283.81z"/>
		</g>
	</g>
</g>
</svg>
